<svg version="1.2" xmlns="http://www.w3.org/2000/svg" viewBox="0 0 1500 927" width="65" height="40">
	<title>Mastercard_2019_logo-svg</title>
	<style>
		.s0 { fill: #ff5f00 } 
		.s1 { fill: #eb001b } 
		.s2 { fill: #f79e1b } 
	</style>
	<g id="layer1">
		<g id="g13">
			<g id="XMLID_328_">
				<path id="rect19" class="s0" d="m547 99.1h405.5v728.4h-405.5z"/>
				<path id="XMLID_330_" class="s1" d="m749.1 827.5c-78.5 61.7-177.6 99-285.7 99-256.2 0-463.4-207.1-463.4-463.2 0-256.1 207.2-463.3 463.4-463.3 108.1 0 207.2 37.3 285.7 99.1-106.8 84.9-176.3 216.2-176.3 364.2 0 148 69.5 280.5 176.3 364.2z"/>
				<path id="path22" class="s2" d="m1499.5 463.3c0 256.1-207.2 463.2-463.4 463.2-108.1 0-207.2-37.3-285.7-99 108.1-85 176.3-216.2 176.3-364.2 0-148-69.5-279.3-176.3-364.2 78.5-61.8 177.6-99.1 285.7-99.1 256.2 0 463.4 208.5 463.4 463.3z"/>
			</g>
		</g>
	</g>
</svg>